<?xml version="1.0" standalone="no"?>
<!DOCTYPE svg PUBLIC "-//W3C//DTD SVG 20010904//EN"
 "http://www.w3.org/TR/2001/REC-SVG-20010904/DTD/svg10.dtd">
<svg version="1.0" xmlns="http://www.w3.org/2000/svg"
 width="172.000000pt" height="87.000000pt" viewBox="0 0 172.000000 87.000000"
 preserveAspectRatio="xMidYMid meet">

<g transform="translate(0.000000,87.000000) scale(0.100000,-0.100000)"
fill="#25a520" stroke="none">
<path d="M10 830 c0 -22 5 -30 18 -30 14 0 24 -26 51 -130 l34 -130 43 0 43 0
16 58 c38 134 42 135 71 25 l21 -78 45 -3 45 -3 33 127 c26 97 38 128 52 132
12 3 18 14 18 33 l0 29 -70 0 -70 0 0 -29 c0 -16 5 -31 11 -33 15 -5 -10 -138
-26 -138 -6 0 -16 24 -23 53 -29 126 -30 127 -67 127 -33 0 -35 -2 -50 -52 -8
-29 -18 -70 -22 -90 -8 -55 -28 -46 -43 20 -7 31 -15 63 -17 70 -3 6 2 12 11
12 11 0 16 9 16 30 l0 30 -70 0 -70 0 0 -30z"/>
<path d="M880 830 c0 -20 5 -30 15 -30 12 0 15 -18 15 -100 0 -82 -3 -100 -15
-100 -10 0 -15 -10 -15 -30 l0 -30 135 0 135 0 0 56 c0 54 0 55 -27 52 -20 -2
-29 -9 -31 -25 -3 -20 -9 -23 -53 -23 l-49 0 0 40 0 40 45 0 c38 0 45 3 45 20
0 17 -7 20 -45 20 l-45 0 0 40 0 40 50 0 c43 0 50 -3 50 -20 0 -16 7 -20 30
-20 29 0 30 1 30 50 l0 50 -135 0 -135 0 0 -30z"/>
<path d="M1500 825 c0 -24 -5 -35 -15 -35 -9 0 -15 -9 -15 -25 0 -16 6 -25 15
-25 10 0 15 -10 15 -34 0 -122 25 -166 95 -166 50 0 57 7 47 41 -5 17 -14 24
-32 24 -24 0 -25 3 -28 68 l-3 67 31 0 c25 0 30 4 30 25 0 21 -5 25 -30 25
-28 0 -30 3 -30 35 0 34 -1 35 -40 35 -39 0 -40 -1 -40 -35z"/>
<path d="M544 771 c-73 -45 -69 -177 7 -216 23 -12 48 -16 86 -13 63 5 85 22
72 56 -7 19 -12 21 -28 12 -41 -21 -111 -5 -111 25 0 12 16 15 80 15 l80 0 0
30 c0 68 -45 110 -117 110 -21 0 -52 -9 -69 -19z m116 -56 c19 -22 3 -35 -46
-35 -45 0 -57 13 -32 38 17 17 63 15 78 -3z"/>
<path d="M1231 776 c-34 -19 -50 -54 -51 -109 0 -53 20 -101 49 -117 26 -13
77 -13 104 1 16 9 22 9 25 0 2 -6 25 -11 52 -11 45 0 48 2 46 25 0 14 -7 25
-13 25 -10 0 -13 27 -13 100 l0 100 -34 0 c-19 0 -36 -5 -38 -11 -3 -9 -9 -9
-25 0 -28 15 -72 14 -102 -3z m100 -56 c14 -8 19 -21 19 -53 0 -24 -5 -48 -12
-55 -16 -16 -53 -15 -67 2 -19 22 -16 74 4 96 21 23 29 24 56 10z"/>
<path d="M829 434 c-9 -11 -10 -20 -2 -32 22 -36 93 -26 93 12 0 37 -65 51
-91 20z"/>
<path d="M655 415 c0 -17 6 -25 18 -25 15 0 17 -12 17 -114 0 -98 -2 -115 -16
-118 -10 -2 -18 -15 -20 -30 l-3 -28 70 0 c67 0 69 1 69 25 0 14 -7 28 -15 31
-12 5 -15 31 -15 145 l0 139 -52 0 c-50 0 -53 -2 -53 -25z"/>
<path d="M1240 415 c0 -16 6 -25 15 -25 13 0 15 -17 13 -117 -2 -88 -6 -117
-15 -116 -8 2 -13 -8 -13 -27 l0 -30 65 0 65 0 0 30 c0 20 -5 30 -15 30 -24 0
-21 102 5 125 43 39 74 -13 68 -117 l-4 -68 48 0 c47 0 48 1 48 30 0 17 -4 30
-10 30 -5 0 -10 19 -10 43 -1 61 -16 120 -36 134 -21 15 -90 17 -99 3 -15 -24
-25 -6 -25 45 l0 55 -50 0 c-47 0 -50 -2 -50 -25z"/>
<path d="M50 390 c0 -20 5 -30 15 -30 12 0 15 -17 15 -95 0 -78 -3 -95 -15
-95 -10 0 -15 -11 -15 -35 l0 -35 88 0 c48 0 103 4 121 10 101 29 140 166 75
259 -27 38 -74 51 -184 51 l-100 0 0 -30z m209 -54 c51 -54 32 -144 -34 -166
-60 -20 -65 -13 -65 95 l0 95 38 0 c28 0 45 -7 61 -24z"/>
<path d="M1570 385 c0 -28 -4 -35 -20 -35 -15 0 -20 -7 -20 -25 0 -18 5 -25
20 -25 18 0 20 -7 20 -80 0 -98 15 -120 84 -120 51 0 56 4 49 43 -4 19 -10 26
-19 23 -33 -13 -44 5 -44 70 l0 64 30 0 c25 0 30 4 30 25 0 21 -5 25 -30 25
-28 0 -30 3 -30 35 0 33 -2 35 -35 35 -33 0 -35 -2 -35 -35z"/>
<path d="M465 341 c-44 -18 -60 -50 -60 -117 0 -56 3 -67 28 -91 25 -25 34
-28 97 -28 80 0 104 14 89 54 -7 17 -14 21 -27 16 -39 -17 -73 -17 -92 0 -11
10 -20 22 -20 27 0 4 36 8 80 8 l80 0 0 30 c0 42 -20 79 -51 96 -30 15 -92 18
-124 5z m105 -71 c6 -11 9 -20 8 -21 -22 -8 -98 -3 -98 6 0 37 72 49 90 15z"/>
<path d="M810 325 c0 -16 6 -25 15 -25 12 0 15 -14 15 -70 0 -56 -3 -70 -15
-70 -10 0 -15 -10 -15 -30 l0 -30 65 0 65 0 0 30 c0 20 -5 30 -15 30 -12 0
-15 17 -15 95 l0 95 -50 0 c-47 0 -50 -2 -50 -25z"/>
<path d="M1033 343 c-38 -7 -66 -52 -58 -93 18 -104 18 -110 -3 -128 -16 -12
-20 -24 -15 -45 9 -44 45 -61 128 -61 92 0 125 18 125 70 0 31 -4 37 -35 50
-19 7 -53 14 -75 14 -55 0 -51 17 6 26 60 9 84 33 84 84 0 33 3 40 20 40 15 0
20 7 20 25 0 25 0 25 -87 24 -49 -1 -98 -4 -110 -6z m81 -65 c13 -21 -2 -51
-26 -56 -16 -3 -48 23 -48 38 0 15 32 41 48 38 8 -2 20 -11 26 -20z m14 -190
c3 -15 -4 -18 -41 -18 -50 0 -62 7 -45 27 16 20 82 13 86 -9z"/>
</g>
</svg>
